# xmcd
#
# Track frame offsets:
#	150
#	11936
#	26808
#	46681
#	59686
#	73074
#	90265
#	104085
#	122628
#	141846
#	151006
#	166518
#	178596
#	193649
#	207824
#	221539
#
# Disc length: 3286 seconds
#
# Revision: 0
# Processed by: cddbd v1.5.1PL2 Copyright (c) Steve Scherf et al.
# Submitted via: dBpowerAMP V4.0
#
DISCID=db0cd410
DTITLE=American Freedom - American Freedom
DYEAR=1982
DGENRE=Pop
TTITLE0=Mamas and Papas - California dreamin'
TTITLE1=Eric Burdon and Animals - San Francisco nights
TTITLE2=Janis Joplin - Me and Bobby McGee
TTITLE3=Turtles - Happy Together
TTITLE4=Cat Stevens - The first Cut is the deepest
TTITLE5=Melanie - Ruby Tuesday
TTITLE6=Nilsson - Without you
TTITLE7=Hollies - Blowin in the wind
TTITLE8=Matthews southern Comfort - Woodstock
TTITLE9=Byrds - Ballad of Easy Rider
TTITLE10=Albert Hammond - It never rains in southern California
TTITLE11=Donovan - Jennifer Juniper
TTITLE12=Leonard Cohen - Bird on the wire
TTITLE13=Jim Croce - I got a name
TTITLE14=Unity of man - Don't bogard me
TTITLE15=Steppenwolf - The pusher
EXTD=
EXTT0=
EXTT1=
EXTT2=
EXTT3=
EXTT4=
EXTT5=
EXTT6=
EXTT7=
EXTT8=
EXTT9=
EXTT10=
EXTT11=
EXTT12=
EXTT13=
EXTT14=
EXTT15=
PLAYORDER=
